<?xml version="1.0" encoding="utf-8"?>
<!-- Generator: Adobe Illustrator 22.0.0, SVG Export Plug-In . SVG Version: 6.00 Build 0)  -->
<svg version="1.1" id="Capa_1" xmlns="http://www.w3.org/2000/svg" xmlns:xlink="http://www.w3.org/1999/xlink" x="0px" y="0px"
	 viewBox="0 0 95 62" style="enable-background:new 0 0 95 62;" xml:space="preserve">
<g>
	<path d="M26.5,2c0,0,2.6-0.3,2.6,1.7s0,0.7,0,2.5v47.2c0,4.6-4.8,8.3-10.7,8.3h-1.7C10.8,61.8,6,58.1,6,53.5V4.2
		c0-1.9-1.5-3.4-3.4-3.4H2.2V0h14v0.9h-0.5c-1.8,0-3.3,1.5-3.3,3.4v53.4c0,1.9,1.9,3.4,4.2,3.4h1.6c5.3,0,9.6-3.4,9.6-7.5V6.3
		c0-1.9-1.5-3.4-3.3-3.4h-1.2V2H26.5z"/>
	<path d="M70.1,0.9c-1.8,0-3.3,1.5-3.3,3.4v53.3c0,1.9,1.5,3.4,3.3,3.4h0.5v0.9h-14v-0.9H57c1.9,0,3.4-1.6,3.4-3.4V3.4L46.8,61.8
		h-1.6L31.8,2.5v55c0,1.9,1.5,3.4,3.3,3.4h1.2v0.9H26.1v-0.9h1.2c1.8,0,3.3-1.6,3.3-3.4V4.2c0-1.9-1.5-3.4-3.3-3.4h-1.2V0h11.5
		l11.2,48.8L60,0h10.6v0.9H70.1z"/>
	<path d="M92.2,8.3v45.2c0,4.6-4.8,8.3-10.7,8.3h-1.6c-6,0-10.7-3.7-10.7-8.3V8.3c0-4.6,4.8-8.3,10.7-8.3h1.6
		C87.3,0,92.2,3.7,92.2,8.3z M85.8,4.2c0-1.9-1.9-3.4-4.3-3.4h-1.7c-2.3,0-4.2,1.5-4.2,3.4v53.4c0,1.9,1.9,3.4,4.2,3.4h1.7
		c2.4,0,4.3-1.5,4.3-3.4V4.2z"/>
</g>
</svg>
